<mxfile host="app.diagrams.net" modified="2024-01-08T05:35:12.860Z" agent="Mozilla/5.0 (X11; Linux x86_64) AppleWebKit/537.36 (KHTML, like Gecko) Chrome/120.0.0.0 Safari/537.36" etag="5ph2UgYbv8IYs27H7W5m" version="22.1.17" type="device">
  <diagram name="Page-1" id="EULbe_V72qm4HzwcgY3U">
    <mxGraphModel dx="1173" dy="804" grid="1" gridSize="10" guides="1" tooltips="1" connect="1" arrows="1" fold="1" page="1" pageScale="1" pageWidth="827" pageHeight="1169" math="0" shadow="0">
      <root>
        <mxCell id="0" />
        <mxCell id="1" parent="0" />
        <mxCell id="ulpVa7H4OPSlxY16S8M1-1" value="(masked) X&lt;br&gt;B x N x L" style="rounded=0;whiteSpace=wrap;html=1;" parent="1" vertex="1">
          <mxGeometry x="340" y="380" width="120" height="60" as="geometry" />
        </mxCell>
        <mxCell id="ulpVa7H4OPSlxY16S8M1-2" value="compressed X&lt;br&gt;B x K x L" style="rounded=0;whiteSpace=wrap;html=1;" parent="1" vertex="1">
          <mxGeometry x="530" y="380" width="120" height="60" as="geometry" />
        </mxCell>
        <mxCell id="ulpVa7H4OPSlxY16S8M1-3" value="" style="endArrow=classic;html=1;rounded=0;exitX=1;exitY=0.5;exitDx=0;exitDy=0;" parent="1" source="ulpVa7H4OPSlxY16S8M1-1" target="ulpVa7H4OPSlxY16S8M1-2" edge="1">
          <mxGeometry width="50" height="50" relative="1" as="geometry">
            <mxPoint x="390" y="440" as="sourcePoint" />
            <mxPoint x="440" y="390" as="targetPoint" />
          </mxGeometry>
        </mxCell>
        <mxCell id="ulpVa7H4OPSlxY16S8M1-4" value="DiffPool" style="edgeLabel;html=1;align=center;verticalAlign=middle;resizable=0;points=[];" parent="ulpVa7H4OPSlxY16S8M1-3" vertex="1" connectable="0">
          <mxGeometry x="0.1333" y="-4" relative="1" as="geometry">
            <mxPoint as="offset" />
          </mxGeometry>
        </mxCell>
        <mxCell id="ulpVa7H4OPSlxY16S8M1-5" value="encoded X&lt;br&gt;B x K x L" style="rounded=0;whiteSpace=wrap;html=1;" parent="1" vertex="1">
          <mxGeometry x="730" y="380" width="120" height="60" as="geometry" />
        </mxCell>
        <mxCell id="ulpVa7H4OPSlxY16S8M1-6" value="" style="endArrow=classic;html=1;rounded=0;exitX=1;exitY=0.5;exitDx=0;exitDy=0;" parent="1" source="ulpVa7H4OPSlxY16S8M1-2" target="ulpVa7H4OPSlxY16S8M1-5" edge="1">
          <mxGeometry width="50" height="50" relative="1" as="geometry">
            <mxPoint x="390" y="440" as="sourcePoint" />
            <mxPoint x="440" y="390" as="targetPoint" />
          </mxGeometry>
        </mxCell>
        <mxCell id="ulpVa7H4OPSlxY16S8M1-7" value="MTST" style="edgeLabel;html=1;align=center;verticalAlign=middle;resizable=0;points=[];" parent="ulpVa7H4OPSlxY16S8M1-6" vertex="1" connectable="0">
          <mxGeometry x="0.05" y="-3" relative="1" as="geometry">
            <mxPoint as="offset" />
          </mxGeometry>
        </mxCell>
        <mxCell id="ulpVa7H4OPSlxY16S8M1-9" value="" style="curved=1;endArrow=classic;html=1;rounded=0;exitX=0.5;exitY=1;exitDx=0;exitDy=0;entryX=0.45;entryY=1.1;entryDx=0;entryDy=0;entryPerimeter=0;" parent="1" source="ulpVa7H4OPSlxY16S8M1-5" target="ulpVa7H4OPSlxY16S8M1-1" edge="1">
          <mxGeometry width="50" height="50" relative="1" as="geometry">
            <mxPoint x="390" y="527" as="sourcePoint" />
            <mxPoint x="440" y="477" as="targetPoint" />
            <Array as="points">
              <mxPoint x="600" y="550" />
              <mxPoint x="390" y="477" />
            </Array>
          </mxGeometry>
        </mxCell>
        <mxCell id="ulpVa7H4OPSlxY16S8M1-10" value="Reconstruct" style="edgeLabel;html=1;align=center;verticalAlign=middle;resizable=0;points=[];" parent="ulpVa7H4OPSlxY16S8M1-9" vertex="1" connectable="0">
          <mxGeometry x="-0.1798" y="2" relative="1" as="geometry">
            <mxPoint as="offset" />
          </mxGeometry>
        </mxCell>
      </root>
    </mxGraphModel>
  </diagram>
</mxfile>
